# xmcd
#
# Track frame offsets: 
#        150
#        11340
#        21474
#        33366
#        46188
#        56311
#        68772
#        79660
#        90120
#        102796
#        114102
#        126202
#        138667
#        148551
#        159490
#        167986
#
# Disc length: 2342 seconds
#
# Revision: 0
# Processed by: cddbd v1.5.2PL0 Copyright (c) Steve Scherf et al.
# Submitted via: ExactAudioCopy v0.95b4
#
DISCID=c1092410
DTITLE=Johnny Cash - I Walk The Line - 1956-1957
DYEAR=2008
DGENRE=Country
TTITLE0=Cry, Cry, Cry
TTITLE1=Hey, Porter
TTITLE2=So Doggone Lonesome
TTITLE3=Folsom Prison Blues
TTITLE4=Get Rhythm
TTITLE5=I Walk The Line
TTITLE6=Train Of Love
TTITLE7=There You Go
TTITLE8=Next In Line
TTITLE9=Don't Make Me Go
TTITLE10=Home Of The Blues
TTITLE11=Give My Love To Rose
TTITLE12=Rock Island Line
TTITLE13=I Heard That Lonesome Whistle Blow
TTITLE14=Country Boy
TTITLE15=If The Good Lord's Willing
EXTD=
EXTT0=
EXTT1=
EXTT2=
EXTT3=
EXTT4=
EXTT5=
EXTT6=
EXTT7=
EXTT8=
EXTT9=
EXTT10=
EXTT11=
EXTT12=
EXTT13=
EXTT14=
EXTT15=
PLAYORDER=
